<svg width="773" height="75" viewBox="0 0 773 75" fill="none" xmlns="http://www.w3.org/2000/svg">
<path d="M45.2475 17.7886C65.9815 23.3443 81.2652 33.5375 79.3846 40.5559C78.8847 42.4214 77.2222 43.8744 74.6615 44.8986C72.5911 40.099 58.3139 30.6384 43.0911 26.5594C27.868 22.4804 12.0911 23.1156 6.21861 26.5594C4.51329 24.3921 3.80049 22.3025 4.30033 20.4371C6.18089 13.4187 24.5136 12.233 45.2475 17.7886Z" fill="#D9D9D9"/>
<path d="M45.2475 17.7886C65.9815 23.3443 81.2652 33.5375 79.3846 40.5559C78.8847 42.4214 77.2222 43.8744 74.6615 44.8986C72.5911 40.099 58.3139 30.6384 43.0911 26.5594C27.868 22.4804 12.0911 23.1156 6.21861 26.5594C4.51329 24.3921 3.80049 22.3025 4.30033 20.4371C6.18089 13.4187 24.5136 12.233 45.2475 17.7886Z" fill="url(#paint0_linear_49_254)"/>
<path d="M712.339 57.0905C733.073 51.5349 748.356 41.3416 746.476 34.3233C745.976 32.4578 744.313 31.0048 741.753 29.9805C739.682 34.7801 725.405 44.2408 710.182 48.3197C694.959 52.3987 679.182 51.7635 673.31 48.3197C671.605 50.487 670.892 52.5767 671.392 54.4421C673.272 61.4604 691.605 62.6462 712.339 57.0905Z" fill="#D9D9D9"/>
<path d="M712.339 57.0905C733.073 51.5349 748.356 41.3416 746.476 34.3233C745.976 32.4578 744.313 31.0048 741.753 29.9805C739.682 34.7801 725.405 44.2408 710.182 48.3197C694.959 52.3987 679.182 51.7635 673.31 48.3197C671.605 50.487 670.892 52.5767 671.392 54.4421C673.272 61.4604 691.605 62.6462 712.339 57.0905Z" fill="url(#paint1_linear_49_254)"/>
<path d="M655.295 60C659.393 60 662.715 63.322 662.715 67.4199C662.715 71.5179 659.393 74.8398 655.295 74.8398C651.197 74.8396 647.875 71.5178 647.875 67.4199C647.875 63.3221 651.197 60.0002 655.295 60ZM458.655 0C481.115 0 495.926 16.7697 495.926 37.2695C495.926 57.7695 481.215 74.54 458.655 74.54C436.095 74.54 421.485 57.8695 421.485 37.2695C421.486 16.7698 436.196 4.55778e-05 458.655 0ZM772.677 73.5293H758.947V32.0127L772.677 19.5938V73.5293ZM42.5108 43.4189L61.8311 1.73926H77.0411L42.9112 73.5283H42.1309L8.09088 1.73926H23.1915L42.5108 43.4189ZM105.585 66.0732V73.1406H91.8555V53.6543L105.585 66.0732ZM285.496 40.668L270.445 73.1406H255.245L278.178 24.9014L285.496 40.668ZM324.185 73.1406H309.39L282.641 15.5156L289.375 1.35059H290.155L324.185 73.1406ZM355.035 41.1064V73.1406H341.405V28.7783L355.035 41.1064ZM390.045 44.7998V1.35059H403.775V73.1406H402.375L341.405 17.9912V1.35059H342.875L390.045 44.7998ZM536.785 73.1406H536.005L529.119 58.6152L536.374 42.9863L536.395 43.0303L555.715 1.35059H570.915L536.785 73.1406ZM595.79 40.6592L580.735 73.1406H565.535L588.472 24.8936L595.79 40.6592ZM634.475 73.1406H619.687L592.935 15.5068L599.665 1.35059H600.445L634.475 73.1406ZM710.002 1.35059L744.133 73.1406H728.923L709.603 31.46L690.282 73.1406H675.183L709.223 1.35059H710.002ZM143.065 60.9795H181.016V73.1396H129.335V1.34961H143.065V60.9795ZM209.476 60.9795H247.426V73.1396H195.745V1.34961H209.476V60.9795ZM458.665 12.8496C445.615 12.8498 435.125 24.3198 435.125 37.2695C435.125 50.3094 445.715 61.7898 458.665 61.79C471.615 61.79 482.205 50.3095 482.205 37.2695C482.205 24.2297 471.715 12.8496 458.665 12.8496ZM105.585 55.2861L91.8555 42.8672V1.35059H105.585V55.2861ZM531.967 33.4785L524.663 49.2148L501.975 1.35059H517.075L531.967 33.4785ZM772.677 8.80664L758.947 21.2256V1.73926H772.677V8.80664Z" fill="black"/>
<path fill-rule="evenodd" clip-rule="evenodd" d="M4.34663 20.2229C3.85047 22.0746 4.56715 24.1514 6.27632 26.3071L6.27866 26.3062L6.27801 26.3086L6.27632 26.3071C10.9977 32.2621 23.2931 38.8198 38.5213 42.9002C53.7484 46.9803 67.6739 47.4485 74.7407 44.6526L74.7411 44.6512L74.7428 44.6527C77.3009 43.6403 78.9599 42.2001 79.4561 40.3484C79.4782 40.2658 79.4972 40.1825 79.5146 40.099L79.5224 40.1011L78.7082 42.9036C76.4796 49.6511 57.2323 51.7801 36.7375 46.2886C16.2426 40.797 2.23924 30.0734 3.68302 23.1156L4.4129 19.9756L4.42069 19.9777C4.39394 20.0587 4.36877 20.1403 4.34663 20.2229Z" fill="#D9D9D9"/>
<path fill-rule="evenodd" clip-rule="evenodd" d="M671.438 54.6562C670.942 52.8045 671.658 50.7277 673.368 48.572L673.37 48.5729L673.369 48.5705L673.368 48.572C678.089 42.6169 690.384 36.0593 705.613 31.9789C720.84 27.8988 734.765 27.4306 741.832 30.2265L741.832 30.2279L741.834 30.2264C744.392 31.2388 746.051 32.6789 746.547 34.5306C746.569 34.6133 746.588 34.6965 746.606 34.7801L746.614 34.778L745.799 31.9755C743.571 25.228 724.324 23.099 703.829 28.5905C683.334 34.0821 669.33 44.8057 670.774 51.7635L671.504 54.9035L671.512 54.9014C671.485 54.8204 671.46 54.7388 671.438 54.6562Z" fill="#D9D9D9"/>
<defs>
<linearGradient id="paint0_linear_49_254" x1="5.54261" y1="17.0891" x2="63.0733" y2="63.4251" gradientUnits="userSpaceOnUse">
<stop stop-color="#E6378C"/>
<stop offset="1" stop-color="#482C84"/>
</linearGradient>
<linearGradient id="paint1_linear_49_254" x1="672.634" y1="57.79" x2="730.164" y2="11.4541" gradientUnits="userSpaceOnUse">
<stop stop-color="#E6378C"/>
<stop offset="1" stop-color="#482C84"/>
</linearGradient>
</defs>
</svg>
